HIERARCHY
ROOT Hips
{
	OFFSET 0.000000 87.230942 0.000000
	CHANNELS 6 Xposition Yposition Zposition Xrotation Yrotation Zrotation
	JOINT Pelvis
	{
		OFFSET 0.000000 0.000000 0.000000
		CHANNELS 3 Xrotation Yrotation Zrotation
		JOINT LeftUpLeg
		{
			OFFSET 12.017000 -9.376404 -2.439400
			CHANNELS 3 Xrotation Yrotation Zrotation
			JOINT LeftLeg
			{
				OFFSET -0.007312 -32.846973 2.110600
				CHANNELS 3 Xrotation Yrotation Zrotation
				JOINT LeftFoot
				{
					OFFSET 0.007312 -32.065170 -0.570400
					CHANNELS 3 Xrotation Yrotation Zrotation
					JOINT LeftToeBase
					{
						OFFSET 0.728300 -11.045900 13.180700
						CHANNELS 3 Xrotation Yrotation Zrotation
						End Site
						{
							OFFSET 0.000000 17.212589 0.000000
						}
					}
				}
				JOINT LeftPantLeg
				{
					OFFSET 0.002788 -16.709013 -3.143600
					CHANNELS 3 Xrotation Yrotation Zrotation
					End Site
					{
						OFFSET -0.605125 24.528742 0.000000
					}
				}
			}
			JOINT Left_Butt
			{
				OFFSET -6.630234 1.326584 -3.183700
				CHANNELS 3 Xrotation Yrotation Zrotation
				End Site
				{
					OFFSET -0.498041 20.188049 0.000000
				}
			}
		}
		JOINT RightUpLeg
		{
			OFFSET -11.717000 -9.376404 -2.439400
			CHANNELS 3 Xrotation Yrotation Zrotation
			JOINT RightLeg
			{
				OFFSET -0.003241 -32.846912 2.110600
				CHANNELS 3 Xrotation Yrotation Zrotation
				JOINT RightFoot
				{
					OFFSET 0.003241 -32.065136 -0.570500
					CHANNELS 3 Xrotation Yrotation Zrotation
					JOINT RightToeBase
					{
						OFFSET -0.728300 -11.045901 13.180700
						CHANNELS 3 Xrotation Yrotation Zrotation
						End Site
						{
							OFFSET 0.000000 17.212593 0.000000
						}
					}
				}
				JOINT RightPantLeg
				{
					OFFSET 0.008142 -16.708982 -3.143700
					CHANNELS 3 Xrotation Yrotation Zrotation
					End Site
					{
						OFFSET 0.605088 24.528715 0.000000
					}
				}
			}
			JOINT Right_Butt
			{
				OFFSET 6.630732 1.326584 -3.183700
				CHANNELS 3 Xrotation Yrotation Zrotation
				End Site
				{
					OFFSET 0.498015 20.188240 0.000000
				}
			}
		}
	}
	JOINT Spine
	{
		OFFSET -0.062400 7.848404 3.918300
		CHANNELS 3 Xrotation Yrotation Zrotation
		JOINT Spine1
		{
			OFFSET -0.072800 11.422302 0.713400
			CHANNELS 3 Xrotation Yrotation Zrotation
			JOINT Spine2
			{
				OFFSET -0.083200 13.054001 -1.931600
				CHANNELS 3 Xrotation Yrotation Zrotation
				JOINT Neck
				{
					OFFSET -0.092200 14.121796 -5.138800
					CHANNELS 3 Xrotation Yrotation Zrotation
					JOINT Head
					{
						OFFSET 0.000200 10.447403 -0.842000
						CHANNELS 3 Xrotation Yrotation Zrotation
						JOINT Visor
						{
							OFFSET 0.457100 25.671204 16.550400
							CHANNELS 3 Xrotation Yrotation Zrotation
							End Site
							{
								OFFSET 0.000000 26.061493 0.000000
							}
						}
						JOINT HairMidA
						{
							OFFSET 0.459400 31.585403 8.437400
							CHANNELS 3 Xrotation Yrotation Zrotation
							End Site
							{
								OFFSET 0.000000 26.061493 0.000000
							}
						}
						JOINT HairMidB
						{
							OFFSET 0.464000 33.309204 -8.389700
							CHANNELS 3 Xrotation Yrotation Zrotation
							End Site
							{
								OFFSET 0.000000 26.061493 0.000000
							}
						}
						JOINT HairMidC
						{
							OFFSET 0.466600 27.991196 -17.375099
							CHANNELS 3 Xrotation Yrotation Zrotation
							End Site
							{
								OFFSET 0.000000 26.061493 0.000000
							}
						}
						JOINT HairMidD
						{
							OFFSET 0.467700 17.888092 -21.169500
							CHANNELS 3 Xrotation Yrotation Zrotation
							End Site
							{
								OFFSET 0.000000 26.061493 0.000000
							}
						}
						JOINT HairMidE
						{
							OFFSET 5.325700 3.514603 -14.369699
							CHANNELS 3 Xrotation Yrotation Zrotation
							End Site
							{
								OFFSET 0.000000 26.061493 0.000000
							}
						}
						JOINT HairMidF
						{
							OFFSET -4.394100 3.514603 -14.372400
							CHANNELS 3 Xrotation Yrotation Zrotation
							End Site
							{
								OFFSET 0.000000 26.061493 0.000000
							}
						}
						JOINT HairLeftA
						{
							OFFSET 15.319900 25.746506 2.623300
							CHANNELS 3 Xrotation Yrotation Zrotation
							End Site
							{
								OFFSET 0.000000 26.061493 0.000000
							}
						}
						JOINT HairLeftB
						{
							OFFSET 12.619500 29.289398 -8.731499
							CHANNELS 3 Xrotation Yrotation Zrotation
							End Site
							{
								OFFSET 0.000000 26.061493 0.000000
							}
						}
						JOINT HairLeftC
						{
							OFFSET 15.714800 15.959900 2.909800
							CHANNELS 3 Xrotation Yrotation Zrotation
							End Site
							{
								OFFSET 0.000000 26.061493 0.000000
							}
						}
						JOINT HairLeftD
						{
							OFFSET 16.101700 18.437408 -7.553200
							CHANNELS 3 Xrotation Yrotation Zrotation
							End Site
							{
								OFFSET 0.000000 26.061493 0.000000
							}
						}
						JOINT HairLeftE
						{
							OFFSET 9.731900 17.915009 -18.316799
							CHANNELS 3 Xrotation Yrotation Zrotation
							End Site
							{
								OFFSET 0.000000 26.061493 0.000000
							}
						}
						JOINT HairLeftF
						{
							OFFSET 11.204300 4.953598 -9.668100
							CHANNELS 3 Xrotation Yrotation Zrotation
							End Site
							{
								OFFSET 0.000000 26.061493 0.000000
							}
						}
						JOINT HairRightA
						{
							OFFSET -14.397900 25.746307 2.615100
							CHANNELS 3 Xrotation Yrotation Zrotation
							End Site
							{
								OFFSET 0.000000 26.061493 0.000000
							}
						}
						JOINT HairRightB
						{
							OFFSET -11.691200 29.289200 -8.738199
							CHANNELS 3 Xrotation Yrotation Zrotation
							End Site
							{
								OFFSET 0.000000 26.061493 0.000000
							}
						}
						JOINT HairRightC
						{
							OFFSET -14.792900 15.959702 2.901400
							CHANNELS 3 Xrotation Yrotation Zrotation
							End Site
							{
								OFFSET 0.000000 26.061493 0.000000
							}
						}
						JOINT HairRightD
						{
							OFFSET -15.174000 18.437195 -7.561900
							CHANNELS 3 Xrotation Yrotation Zrotation
							End Site
							{
								OFFSET 0.000000 26.061493 0.000000
							}
						}
						JOINT HairRightE
						{
							OFFSET -8.798200 17.914902 -18.322001
							CHANNELS 3 Xrotation Yrotation Zrotation
							End Site
							{
								OFFSET 0.000000 26.061493 0.000000
							}
						}
						JOINT HairRightF
						{
							OFFSET -10.275200 4.953506 -9.674099
							CHANNELS 3 Xrotation Yrotation Zrotation
							End Site
							{
								OFFSET 0.000000 26.061493 0.000000
							}
						}
					}
				}
				JOINT LeftShoulder
				{
					OFFSET 5.133500 7.341202 -1.867600
					CHANNELS 3 Xrotation Yrotation Zrotation
					JOINT LeftArm
					{
						OFFSET 8.072663 0.936867 -2.176600
						CHANNELS 3 Xrotation Yrotation Zrotation
						JOINT LeftForeArm
						{
							OFFSET 31.271999 0.000000 0.000000
							CHANNELS 3 Xrotation Yrotation Zrotation
							JOINT LeftHand
							{
								OFFSET 31.771030 0.000000 0.000000
								CHANNELS 3 Xrotation Yrotation Zrotation
								JOINT LeftHandThumb1
								{
									OFFSET 2.886520 -2.557846 4.416640
									CHANNELS 3 Xrotation Yrotation Zrotation
									JOINT LeftHandThumb2
									{
										OFFSET 2.371025 -1.368912 1.368911
										CHANNELS 3 Xrotation Yrotation Zrotation
										JOINT LeftHandThumb3
										{
											OFFSET 2.243378 -1.295212 1.295213
											CHANNELS 3 Xrotation Yrotation Zrotation
											End Site
											{
												OFFSET -0.332611 2.876945 0.020015
											}
										}
									}
								}
								JOINT LeftHandIndex1
								{
									OFFSET 8.568985 -0.641945 3.119977
									CHANNELS 3 Xrotation Yrotation Zrotation
									JOINT LeftHandIndex2
									{
										OFFSET 3.348503 0.000000 0.000000
										CHANNELS 3 Xrotation Yrotation Zrotation
										JOINT LeftHandIndex3
										{
											OFFSET 3.314552 0.000000 0.000000
											CHANNELS 3 Xrotation Yrotation Zrotation
											End Site
											{
												OFFSET -1.032898 3.075485 0.678796
											}
										}
									}
								}
								JOINT LeftHandMiddle1
								{
									OFFSET 8.124603 0.000000 0.000000
									CHANNELS 3 Xrotation Yrotation Zrotation
									JOINT LeftHandMiddle2
									{
										OFFSET 4.166275 0.000000 0.000000
										CHANNELS 3 Xrotation Yrotation Zrotation
										JOINT LeftHandMiddle3
										{
											OFFSET 3.018135 0.000000 0.000000
											CHANNELS 3 Xrotation Yrotation Zrotation
											End Site
											{
												OFFSET -1.032700 2.767982 0.617226
											}
										}
									}
								}
								JOINT LeftHandRing1
								{
									OFFSET 8.571686 -0.031357 -2.884048
									CHANNELS 3 Xrotation Yrotation Zrotation
									JOINT LeftHandRing2
									{
										OFFSET 3.671181 0.000000 0.000000
										CHANNELS 3 Xrotation Yrotation Zrotation
										JOINT LeftHandRing3
										{
											OFFSET 2.728851 0.000000 0.000000
											CHANNELS 3 Xrotation Yrotation Zrotation
											End Site
											{
												OFFSET -0.815796 2.539223 0.577389
											}
										}
									}
								}
								JOINT LeftHandPinky1
								{
									OFFSET 7.854515 -0.675232 -5.213020
									CHANNELS 3 Xrotation Yrotation Zrotation
									JOINT LeftHandPinky2
									{
										OFFSET 3.068596 0.000000 0.000000
										CHANNELS 3 Xrotation Yrotation Zrotation
										JOINT LeftHandPinky3
										{
											OFFSET 2.396042 0.000000 0.000000
											CHANNELS 3 Xrotation Yrotation Zrotation
											End Site
											{
												OFFSET -0.524597 2.267998 0.567429
											}
										}
									}
								}
							}
							JOINT LeftSleeve
							{
								OFFSET 19.684509 -0.200119 0.476146
								CHANNELS 3 Xrotation Yrotation Zrotation
								End Site
								{
									OFFSET -0.031017 25.731133 -0.002868
								}
							}
						}
					}
				}
				JOINT RightShoulder
				{
					OFFSET -4.395900 7.341202 -1.870200
					CHANNELS 3 Xrotation Yrotation Zrotation
					JOINT RightArm
					{
						OFFSET -8.071453 0.936867 -2.181100
						CHANNELS 3 Xrotation Yrotation Zrotation
						JOINT RightForeArm
						{
							OFFSET -31.272011 0.000000 0.000000
							CHANNELS 3 Xrotation Yrotation Zrotation
							JOINT RightHand
							{
								OFFSET -31.771019 0.000000 0.000000
								CHANNELS 3 Xrotation Yrotation Zrotation
								JOINT RightHandThumb1
								{
									OFFSET -2.886520 -2.557808 4.416626
									CHANNELS 3 Xrotation Yrotation Zrotation
									JOINT RightHandThumb2
									{
										OFFSET -2.371056 -1.368927 1.368928
										CHANNELS 3 Xrotation Yrotation Zrotation
										JOINT RightHandThumb3
										{
											OFFSET -2.243362 -1.295204 1.295206
											CHANNELS 3 Xrotation Yrotation Zrotation
											End Site
											{
												OFFSET 0.332642 2.876938 0.020047
											}
										}
									}
								}
								JOINT RightHandIndex1
								{
									OFFSET -8.568993 -0.641953 3.120017
									CHANNELS 3 Xrotation Yrotation Zrotation
									JOINT RightHandIndex2
									{
										OFFSET -3.348518 0.000000 0.000000
										CHANNELS 3 Xrotation Yrotation Zrotation
										JOINT RightHandIndex3
										{
											OFFSET -3.314552 0.000000 0.000000
											CHANNELS 3 Xrotation Yrotation Zrotation
											End Site
											{
												OFFSET 1.032898 3.075478 0.678804
											}
										}
									}
								}
								JOINT RightHandMiddle1
								{
									OFFSET -8.124588 0.000000 0.000000
									CHANNELS 3 Xrotation Yrotation Zrotation
									JOINT RightHandMiddle2
									{
										OFFSET -4.166275 0.000000 0.000000
										CHANNELS 3 Xrotation Yrotation Zrotation
										JOINT RightHandMiddle3
										{
											OFFSET -3.018097 0.000000 0.000000
											CHANNELS 3 Xrotation Yrotation Zrotation
											End Site
											{
												OFFSET 1.032700 2.767937 0.617197
											}
										}
									}
								}
								JOINT RightHandRing1
								{
									OFFSET -8.571747 -0.031349 -2.884061
									CHANNELS 3 Xrotation Yrotation Zrotation
									JOINT RightHandRing2
									{
										OFFSET -3.671204 0.000000 0.000000
										CHANNELS 3 Xrotation Yrotation Zrotation
										JOINT RightHandRing3
										{
											OFFSET -2.728874 0.000000 0.000000
											CHANNELS 3 Xrotation Yrotation Zrotation
											End Site
											{
												OFFSET 0.815804 2.539261 0.577413
											}
										}
									}
								}
								JOINT RightHandPinky1
								{
									OFFSET -7.854561 -0.675247 -5.212970
									CHANNELS 3 Xrotation Yrotation Zrotation
									JOINT RightHandPinky2
									{
										OFFSET -3.068550 0.000000 0.000000
										CHANNELS 3 Xrotation Yrotation Zrotation
										JOINT RightHandPinky3
										{
											OFFSET -2.395981 0.000000 0.000000
											CHANNELS 3 Xrotation Yrotation Zrotation
											End Site
											{
												OFFSET 0.524605 2.267952 0.567413
											}
										}
									}
								}
							}
							JOINT RightSleeve
							{
								OFFSET -19.684753 -0.200165 0.476065
								CHANNELS 3 Xrotation Yrotation Zrotation
								End Site
								{
									OFFSET 0.031342 25.731255 -0.002917
								}
							}
						}
					}
				}
				JOINT Hood
				{
					OFFSET 0.369700 14.447800 -5.317800
					CHANNELS 3 Xrotation Yrotation Zrotation
					JOINT Hood1
					{
						OFFSET 0.001700 -5.553802 -5.895100
						CHANNELS 3 Xrotation Yrotation Zrotation
						JOINT Hood2
						{
							OFFSET -0.000200 -8.380501 0.763600
							CHANNELS 3 Xrotation Yrotation Zrotation
							End Site
							{
								OFFSET 0.000000 8.415215 0.000000
							}
						}
					}
				}
				JOINT Left_Breast
				{
					OFFSET 5.682500 3.120102 3.188800
					CHANNELS 3 Xrotation Yrotation Zrotation
					End Site
					{
						OFFSET 0.000000 10.528564 0.000000
					}
				}
				JOINT Right_Breast
				{
					OFFSET -4.947600 3.120102 3.185900
					CHANNELS 3 Xrotation Yrotation Zrotation
					End Site
					{
						OFFSET 0.000000 10.528564 0.000000
					}
				}
				JOINT Whistle
				{
					OFFSET 0.368200 11.471298 0.095400
					CHANNELS 3 Xrotation Yrotation Zrotation
					JOINT Whistle1
					{
						OFFSET -0.002000 -6.349899 7.479800
						CHANNELS 3 Xrotation Yrotation Zrotation
						JOINT Whistle2
						{
							OFFSET -0.001300 -8.217598 4.717600
							CHANNELS 3 Xrotation Yrotation Zrotation
							End Site
							{
								OFFSET 0.000000 9.475479 0.000000
							}
						}
					}
				}
			}
		}
		JOINT Belly
		{
			OFFSET 0.212400 1.593002 3.163700
			CHANNELS 3 Xrotation Yrotation Zrotation
			End Site
			{
				OFFSET 0.000000 7.496635 0.000000
			}
		}
	}
	JOINT FitGrandmaFacialAnim_Joint
	{
		OFFSET 1.150000 -86.211197 -1.220100
		CHANNELS 3 Xrotation Yrotation Zrotation
		End Site
		{
			OFFSET 0.000000 31.666618 0.000000
		}
	}
}
MOTION
Frames: 4
Frame Time: 0.016667
-0.885252 85.510696 0.919773 2.912485 -28.986288 1.183295 0.000000 0.000001 0.000000 -13.740163 18.791206 9.910596 19.175751 12.881979 -0.943081 -7.500281 -3.737853 -6.784513 -0.000000 0.000000 -0.000000 0.000000 0.000001 0.000000 0.000001 -0.000000 0.000000 -5.254938 -1.936346 -9.982064 12.482522 9.960095 0.835635 -10.744233 -1.174152 7.475012 0.000000 -0.000001 0.000000 0.000002 0.000001 -0.000000 0.000000 0.000005 -0.000000 7.836083 -0.364732 -2.675043 1.099251 -0.880565 2.383463 1.108681 -0.590452 2.446365 -3.842070 18.019050 -6.496394 -6.332478 13.021551 0.301483 0.000000 -0.000000 -0.000000 0.000000 -0.000000 -0.000000 0.000000 -0.000000 -0.000000 0.000000 -0.000000 -0.000000 0.000000 -0.000000 -0.000000 0.000000 -0.000000 -0.000000 0.000000 -0.000000 -0.000000 0.000000 -0.000000 -0.000000 0.000000 -0.000000 -0.000000 0.000000 -0.000000 -0.000000 0.000000 -0.000000 -0.000000 0.000000 -0.000000 -0.000000 0.000000 -0.000000 -0.000000 0.000000 -0.000000 -0.000000 0.000000 -0.000000 -0.000000 0.000000 -0.000000 -0.000000 0.000000 -0.000000 -0.000000 0.000000 -0.000000 -0.000000 0.000000 -0.000000 -0.000000 -0.057390 -8.759445 -0.061011 -55.249762 0.330135 -41.449915 11.585990 -65.829541 13.007203 -50.191187 12.353370 4.611977 17.542484 -5.723988 -12.930221 10.850481 26.127726 8.644794 0.000005 0.000002 0.000001 13.974924 1.202177 -55.004343 0.370822 1.161697 -65.441873 -0.000001 -0.000001 -0.000001 7.504728 1.174475 -63.778524 1.807832 1.475671 -64.567937 -0.000002 0.000002 0.000004 8.574344 2.179136 -75.149020 -0.207621 1.009300 -57.855049 0.000000 -0.000001 -0.000004 10.030102 13.637098 -84.750271 0.877098 0.062311 -64.595531 -0.000002 0.000000 -0.000001 0.000001 -0.000002 -0.000001 4.849291 7.760140 5.560446 -0.933496 -2.176879 61.845669 11.299290 18.943443 -3.987518 -0.459220 6.620149 5.830136 15.788513 -2.734471 -17.205885 -2.198332 -31.113550 7.361276 0.000000 -0.000000 0.000002 2.374670 -3.640931 8.487424 -2.147350 -2.473156 18.673274 0.000002 -0.000000 0.000001 -1.990497 -5.687062 13.662140 0.282188 -5.088225 26.988309 -0.000001 -0.000000 -0.000003 -3.248703 -8.544116 11.772695 4.043117 -4.063255 33.263650 0.000001 -0.000001 0.000001 -6.473322 -11.333592 23.262791 10.715340 -2.558936 34.822876 -0.000001 0.000000 -0.000000 -0.000000 -0.000000 -0.000002 0.000001 -0.000003 0.000001 0.000001 -0.000003 0.000001 0.000001 -0.000003 0.000001 0.000001 -0.000003 0.000001 0.000001 -0.000003 0.000001 0.000001 -0.000003 0.000000 -0.000000 -0.000001 0.000000 -0.000000 -0.000001 0.000000 -0.000000 0.000001 -0.000000 0.000000 0.000001 0.000000 
-0.814435 85.477066 0.828287 2.958121 -28.857925 1.160045 -0.000000 0.000002 -0.000000 -14.111884 18.768115 9.989297 19.510041 13.440433 -0.904104 -7.563200 -4.437100 -6.838107 0.000000 0.000000 0.000000 -0.000000 -0.000001 -0.000001 -0.000000 0.000001 0.000000 -5.490148 -1.936236 -9.928405 12.782637 9.757161 0.795772 -10.842673 -1.167361 7.474194 -0.000000 0.000000 0.000000 0.000000 0.000003 0.000001 0.000000 -0.000001 0.000000 7.802475 -0.363818 -2.676936 1.074050 -0.871353 2.364665 1.083490 -0.588033 2.427852 -3.746775 18.050066 -6.586955 -6.429084 13.000710 0.448108 0.000000 0.000000 -0.000000 0.000000 0.000000 -0.000000 0.000000 0.000000 -0.000000 0.000000 0.000000 -0.000000 0.000000 0.000000 -0.000000 0.000000 0.000000 -0.000000 0.000000 0.000000 -0.000000 0.000000 0.000000 -0.000000 0.000000 0.000000 -0.000000 0.000000 0.000000 -0.000000 0.000000 0.000000 -0.000000 0.000000 0.000000 -0.000000 0.000000 0.000000 -0.000000 0.000000 0.000000 -0.000000 0.000000 0.000000 -0.000000 0.000000 0.000000 -0.000000 0.000000 0.000000 -0.000000 0.000000 0.000000 -0.000000 0.000000 0.000000 -0.000000 -0.004174 -8.315558 -0.161325 -55.335273 0.717931 -41.094827 10.897067 -65.775405 12.310719 -50.186130 12.360863 4.470050 17.542484 -5.723988 -12.930216 10.824643 26.057631 8.641507 0.000000 -0.000000 -0.000000 13.985135 1.290444 -55.047370 0.371052 1.161910 -65.457535 -0.000000 -0.000000 0.000001 7.465923 1.197212 -63.754714 1.806382 1.476406 -64.514238 -0.000001 0.000001 -0.000003 8.571900 2.201348 -75.001290 -0.208894 1.005588 -57.694546 0.000004 0.000000 0.000002 9.971801 13.637660 -84.708382 0.873391 0.061152 -64.420760 -0.000003 0.000000 0.000000 -0.000000 -0.000000 -0.000000 4.851983 7.811873 5.709654 -0.844148 -2.132276 61.674614 11.420379 18.937664 -4.006115 -0.452340 6.527041 5.826807 15.788515 -2.734471 -17.205883 -2.106400 -31.245657 7.373570 0.000000 -0.000001 0.000000 2.374295 -3.644131 8.645134 -2.147462 -2.473292 18.952851 -0.000001 -0.000000 0.000001 -1.989610 -5.689718 13.819834 0.282330 -5.090145 27.267976 0.000000 0.000001 -0.000001 -3.249576 -8.547460 11.930101 4.042382 -4.063373 33.543196 0.000001 -0.000001 -0.000001 -6.473357 -11.335273 23.420401 10.719497 -2.558893 35.102740 0.000001 -0.000001 -0.000000 -0.000000 -0.000000 -0.000002 -0.000001 -0.000004 0.000001 -0.000001 -0.000004 0.000001 -0.000001 -0.000004 0.000001 -0.000001 -0.000004 0.000001 -0.000001 -0.000004 0.000001 -0.000001 -0.000004 0.000000 -0.000001 -0.000002 -0.000000 -0.000001 -0.000002 -0.000000 0.000000 -0.000001 0.000000 -0.000000 0.000002 -0.000000 
-0.734031 85.441711 0.744865 3.001449 -28.708132 1.128872 0.000000 -0.000002 0.000000 -14.503073 18.772486 10.073992 19.869261 13.997372 -0.865546 -7.645155 -5.185652 -6.883590 0.000000 0.000000 -0.000000 -0.000000 -0.000001 -0.000000 -0.000000 0.000000 -0.000001 -5.697865 -1.999495 -9.854732 13.049904 9.525506 0.713613 -10.934369 -1.146689 7.520479 0.000000 0.000001 -0.000000 -0.000000 0.000002 -0.000000 0.000000 0.000001 -0.000001 7.765489 -0.355695 -2.669367 1.051472 -0.856366 2.346642 1.060734 -0.578901 2.409568 -4.035128 18.103340 -6.236033 -6.261311 13.166570 0.315301 -0.000000 -0.000000 -0.000000 -0.000000 -0.000000 -0.000000 -0.000000 -0.000000 -0.000000 -0.000000 -0.000000 -0.000000 -0.000000 -0.000000 -0.000000 -0.000000 -0.000000 -0.000000 -0.000000 -0.000000 -0.000000 -0.000000 -0.000000 -0.000000 -0.000000 -0.000000 -0.000000 -0.000000 -0.000000 -0.000000 -0.000000 -0.000000 -0.000000 -0.000000 -0.000000 -0.000000 -0.000000 -0.000000 -0.000000 -0.000000 -0.000000 -0.000000 -0.000000 -0.000000 -0.000000 -0.000000 -0.000000 -0.000000 -0.000000 -0.000000 -0.000000 -0.000000 -0.000000 -0.000000 -0.000000 -0.000000 -0.000000 -0.095203 -7.833562 -0.261092 -55.289067 1.044023 -40.597545 10.451507 -65.790411 11.849319 -50.183825 12.334701 4.429952 17.542480 -5.724005 -12.930198 10.824657 26.057691 8.641510 0.000000 0.000001 0.000000 13.985159 1.290536 -55.047322 0.371037 1.161917 -65.457466 0.000001 -0.000001 0.000002 7.465887 1.197206 -63.754721 1.806396 1.476400 -64.514190 0.000000 0.000000 -0.000005 8.571883 2.201334 -75.001324 -0.208843 1.005596 -57.694594 0.000001 -0.000001 0.000007 9.971814 13.637659 -84.708450 0.873415 0.061173 -64.421593 0.000000 0.000000 -0.000000 -0.000002 0.000000 0.000001 4.852109 7.875473 5.834438 -0.731473 -2.101492 61.529971 11.542485 18.958848 -4.028542 -0.441498 6.372633 5.804633 15.788512 -2.734471 -17.205882 -2.008259 -31.386396 7.386895 0.000001 0.000001 0.000001 2.373889 -3.647525 8.813126 -2.147531 -2.473433 19.250794 0.000000 -0.000000 0.000001 -1.988694 -5.692529 13.987957 0.282496 -5.092157 27.566017 0.000000 0.000000 -0.000003 -3.250513 -8.551007 12.097782 4.041628 -4.063507 33.840886 -0.000000 -0.000001 0.000001 -6.473468 -11.337019 23.588154 10.719569 -2.559001 35.400724 -0.000001 -0.000000 0.000004 -0.000001 0.000000 0.000001 0.000001 -0.000000 0.000000 0.000001 -0.000000 0.000000 0.000001 -0.000000 0.000000 0.000001 -0.000000 0.000000 0.000001 -0.000000 0.000000 0.000001 -0.000000 0.000000 0.000000 -0.000000 -0.000000 0.000000 -0.000000 -0.000000 -0.000000 -0.000002 0.000001 0.000000 -0.000002 0.000000 
-0.639667 85.402527 0.675098 3.034721 -28.498042 1.073887 -0.000000 0.000001 -0.000000 -14.934207 18.788394 10.221192 20.287849 13.136344 -0.938685 -7.749878 -4.633164 -6.660338 0.000000 0.000000 -0.000000 -0.000001 0.000000 -0.000001 -0.000000 -0.000000 -0.000000 -5.855096 -2.115741 -9.756597 13.284152 9.231617 0.596540 -11.028745 -1.118130 7.615050 -0.000000 0.000002 0.000000 -0.000001 -0.000001 0.000001 0.000000 0.000004 -0.000000 7.720157 -0.334152 -2.635902 1.037692 -0.825890 2.332715 1.046381 -0.551332 2.393832 -4.158289 18.277619 -6.094379 -6.212595 13.365644 0.304792 0.000000 0.000000 0.000000 0.000000 0.000000 0.000000 0.000000 0.000000 0.000000 0.000000 0.000000 0.000000 0.000000 0.000000 0.000000 0.000000 0.000000 0.000000 0.000000 0.000000 0.000000 0.000000 0.000000 0.000000 0.000000 0.000000 0.000000 0.000000 0.000000 0.000000 0.000000 0.000000 0.000000 0.000000 0.000000 0.000000 0.000000 0.000000 0.000000 0.000000 0.000000 0.000000 0.000000 0.000000 0.000000 0.000000 0.000000 0.000000 0.000000 0.000000 0.000000 0.000000 0.000000 0.000000 0.000000 0.000000 0.000000 -0.122211 -7.332438 -0.371027 -55.212965 1.531644 -40.105611 9.829975 -65.922595 11.210628 -50.174576 12.301584 4.331380 17.542468 -5.723985 -12.930213 10.824828 26.058113 8.641549 0.000001 0.000001 0.000001 13.985214 1.291116 -55.047076 0.371026 1.161916 -65.456988 0.000000 -0.000001 0.000000 7.465674 1.197342 -63.754523 1.806385 1.476416 -64.513971 0.000001 0.000001 0.000001 8.571893 2.201216 -75.001611 -0.208881 1.005602 -57.694895 0.000002 0.000001 0.000001 9.972049 13.637648 -84.708675 0.873428 0.061169 -64.423068 -0.000001 -0.000000 0.000000 -0.000001 0.000000 -0.000001 4.844678 7.972238 5.880413 -0.550619 -2.122584 61.472823 11.675094 19.081207 -4.071083 -0.420798 6.034999 5.735727 15.788510 -2.734472 -17.205883 -1.904657 -31.534563 7.401383 0.000001 0.000002 -0.000002 2.373490 -3.651106 8.990276 -2.147580 -2.473574 19.564604 -0.000000 0.000000 -0.000000 -1.987684 -5.695486 14.164836 0.282659 -5.094228 27.879640 -0.000000 0.000000 -0.000002 -3.251473 -8.554748 12.274407 4.040900 -4.063629 34.154699 -0.000000 -0.000000 -0.000001 -6.473505 -11.338862 23.764957 10.719650 -2.559123 35.714332 -0.000000 -0.000000 0.000001 0.000000 0.000000 -0.000005 0.000000 -0.000000 0.000001 0.000000 -0.000000 0.000001 0.000000 -0.000000 0.000001 0.000000 -0.000000 0.000001 0.000000 -0.000000 0.000001 0.000000 -0.000000 0.000000 -0.000000 -0.000002 0.000001 -0.000000 -0.000002 0.000001 0.000001 0.000001 -0.000000 -0.000000 0.000001 -0.000000 
